ply
format ascii 1.0
element vertex 456
property float x
property float y
property float z
property float nx
property float ny
property float nz
element face 912
property list uchar int vertex_index
end_header
-460 -1000 -143 -0.03721614637823934 -0.8421052631578947 -0.14247930427297617
-340 -1000 -143 0.041594516540385144 -0.8823529411764706 -0.10041804595214984
-340 -583.565918 -143 0.282842712474619 0.11471528790748226 -0.8466731208861941
-460 -583.565918 -143 -0.282842712474619 0.2294305758149645 -0.8105035292977689
-465 -1000 -138 -0.10059223176554562 -0.875 -0.05892556509887895
-465 -576.425171 -138 -0.5295866830266496 0.24581847408746194 -0.4520804153371674
-335 -1000 -138 0.10059223176554562 -0.875 -0.05892556509887895
-335 -576.425171 -138 0.5295866830266496 0.24581847408746194 -0.4520804153371674
-335 -565 -130 0.14285714285714285 -0.40754958870359675 -0.23404344058796422
-465 -565 -130 -0.2 -0.48528471209251783 -0.16383040841157498
-465 -1000 -13 -0.25 -0.5 -0.25
-465 -565 -13 -0.5 -0.25 -0.25
-335 -1000 -13 0.25 -0.5 -0.25
-335 -565 -13 0.5 -0.25 -0.25
-800 -565 -13 -0.6000000000000001 -0.2 -0.2
-800 -1000 -13 -0.3333333333333333 -0.3333333333333333 -0.3333333333333333
0 -565 -13 0.5 -0.25 -0.25
0 -1000 -13 0.3333333333333333 -0.3333333333333333 -0.3333333333333333
-800 -565 -136 -0.7916666666666666 -0.18392556509887895 -0.05892556509887895
0 -565 -136 0.875 -0.1127961158827728 -0.029462782549439476
0 -558 -143 0.8333333333333333 -0.07856742013183861 -0.13412297568739415
-800 -558 -143 -0.8421052631578947 -0.03721614637823934 -0.14247930427297617
0 -442 -143 0.8421052631578947 0.03721614637823934 -0.14247930427297617
-800 -442 -143 -0.8333333333333333 0.07856742013183861 -0.13412297568739415
0 -435 -136 0.8076923076923077 0.1697774447066575 -0.05439282932204212
-800 -435 -136 -0.875 0.1127961158827728 -0.029462782549439476
-335 -435 -130 0.2 0.48528471209251783 -0.16383040841157498
-465 -435 -130 -0.14285714285714285 0.4075495887035968 -0.23404344058796422
0 -435 -13 0.5555555555555556 0.2222222222222222 -0.2222222222222222
-335 -435 -13 0.5 0.25 -0.25
-800 -435 -13 -0.5 0.25 -0.25
-465 -435 -13 -0.5 0.25 -0.25
0 0 -13 0.3333333333333333 0.3333333333333333 -0.3333333333333333
-335 0 -13 0.25 0.5 -0.25
-465 0 -13 -0.2222222222222222 0.5555555555555556 -0.2222222222222222
-800 0 -13 -0.3333333333333333 0.3333333333333333 -0.3333333333333333
-335 0 -138 0.10059223176554562 0.875 -0.05892556509887895
-335 -423.574829 -138 0.5295866830266496 -0.24581847408746194 -0.4520804153371674
-465 -423.574829 -138 -0.5295866830266496 -0.24581847408746194 -0.4520804153371674
-465 0 -138 -0.10059223176554562 0.875 -0.05892556509887895
-340 -416.434082 -143 0.282842712474619 -0.2294305758149645 -0.8105035292977689
-460 -416.434082 -143 -0.282842712474619 -0.11471528790748226 -0.8466731208861941
-340 0 -143 0.03721614637823934 0.8421052631578947 -0.14247930427297617
-460 0 -143 -0.041594516540385144 0.8823529411764706 -0.10041804595214984
-448.173859 -1000 -127.913414 0.09286688881013666 -0.4 0.5926069641593396
-447.784149 -1000 -127.961479 0.06367718310777243 -0.4 0.5964499051857389
-450.061462 -1000 -127.391037 0.23407552922485958 -0.4 0.5522824637599796
-449.695129 -1000 -127.532356 0.20669436868231783 -0.4 0.5631027535228882
-448.56073 -1000 -127.846283 0.12183287312188523 -0.4 0.5873363806131106
-449.322266 -1000 -127.655525 0.17881525441892576 -0.4 0.5725664831750257
-448.943848 -1000 -127.760246 0.15050535152341166 -0.4 0.5806508521871029
-450.420441 -1000 -127.231911 0.2608927945157628 -0.4 0.5401316715412322
-447 -1000 -128 0.008180409672264407 -0.3333333333333333 0.6665662728946933
-353 -1000 -128 -0.0049082458033586455 -0.6000000000000001 0.39993976373681606
-447.392548 -1000 -127.990364 0.034334073200870584 -0.4 0.5988559462638875
-451.112823 -1000 -126.861832 0.3125786926004014 -0.4 0.5119588205661775
-450.771179 -1000 -127.055367 0.2870815491176139 -0.4 0.5266796531916996
-451.765594 -1000 -126.425659 0.3010452254695739 -0.5 0.39904628043163537
-451.44455 -1000 -126.651756 0.33732279586763597 -0.4 0.4960046417339573
-352.607452 -1000 -127.990364 -0.024529405305473262 -0.4 0.5993376187371678
-352.215851 -1000 -127.961479 -0.053907962102020174 -0.4 0.597412089488173
-351.826141 -1000 -127.913414 -0.08315664646183067 -0.4 0.5940473425213222
-351.43927 -1000 -127.846283 -0.11220500214016393 -0.4 0.5892514832052337
-351.056152 -1000 -127.760246 -0.1409830478135091 -0.4 0.583036065104045
-350.677734 -1000 -127.655525 -0.16942145482612 -0.4 0.5754160612225931
-350.304871 -1000 -127.532356 -0.19745171134702466 -0.4 0.5664098293251731
-349.938538 -1000 -127.391037 -0.2250062776212353 -0.4 0.5560390707402915
-349.579559 -1000 -127.231911 -0.2520187876721233 -0.4 0.54432876416045
-349.228821 -1000 -127.055367 -0.2784241752385081 -0.4 0.5313071160568571
-348.887177 -1000 -126.861832 -0.3041588077985605 -0.4 0.5170055054463598
-348.234406 -1000 -126.425659 -0.2944746565265923 -0.5 0.4039193463649587
-348.55545 -1000 -126.651756 -0.329160686634939 -0.4 0.5014583887099762
-347.924866 -1000 -126.184082 -0.37672720726977327 -0.4 0.4667803381836233
-347.627533 -1000 -125.927612 -0.3991772530495493 -0.4 0.44773294916740175
-347.34314 -1000 -125.656853 -0.4206656351376376 -0.4 0.4276069415650005
-347.072388 -1000 -125.372475 -0.44114059857988264 -0.4 0.40645079087991204
-346.815918 -1000 -125.07515 -0.4605528189692721 -0.4 0.3843154612444799
-346.574341 -1000 -124.765594 -0.47885553651796253 -0.4 0.3612542705634887
-346.348236 -1000 -124.444565 -0.4960046417339573 -0.4 0.33732279586763597
-346.138184 -1000 -124.112823 -0.5119588205661775 -0.4 0.3125786926004014
-345.944641 -1000 -123.771172 -0.5266796531916996 -0.4 0.2870815491176139
-345.768097 -1000 -123.420441 -0.5401316715412322 -0.4 0.2608927945157628
-345.608978 -1000 -123.06147 -0.5522824637599796 -0.4 0.23407552922485958
-345.467651 -1000 -122.695122 -0.5631027535228882 -0.4 0.20669436868231783
-345.344482 -1000 -122.322281 -0.5725664831750257 -0.4 0.17881525441892576
-345.239746 -1000 -121.94384 -0.5806508521871029 -0.4 0.15050535152341166
-345.153717 -1000 -121.560722 -0.5873363806131106 -0.4 0.12183287312188523
-345.086578 -1000 -121.173843 -0.5926069641593396 -0.4 0.09286688881013666
-345.038513 -1000 -120.784134 -0.5964499051857389 -0.4 0.06367718310777243
-345.009644 -1000 -120.39254 -0.5988559462638875 -0.4 0.034334073200870584
-345 -1000 -120 -0.49989960622802665 -0.5 0.008180409672264407
0 -1000 0 0.5555555555555556 -0.3333333333333333 0.1111111111111111
-345 -1000 -13 -0.25 -0.5 -0.25
-800 -1000 0 -0.4 -0.4 0.2
-455 -1000 -13 0.2 -0.6000000000000001 -0.2
-455 -1000 -120 0.4999498031140133 -0.5 0.0040902048361322035
-454.990356 -1000 -120.39254 0.5993376187371678 -0.4 0.024529405305473262
-454.961487 -1000 -120.784134 0.597412089488173 -0.4 0.053907962102020174
-454.913422 -1000 -121.173843 0.5940473425213222 -0.4 0.08315664646183067
-454.846283 -1000 -121.560722 0.5892514832052337 -0.4 0.11220500214016393
-454.760254 -1000 -121.94384 0.583036065104045 -0.4 0.1409830478135091
-454.655518 -1000 -122.322281 0.5754160612225931 -0.4 0.16942145482612
-454.532349 -1000 -122.695122 0.5664098293251731 -0.4 0.19745171134702466
-454.391022 -1000 -123.06147 0.5560390707402915 -0.4 0.2250062776212353
-454.231903 -1000 -123.420441 0.54432876416045 -0.4 0.2520187876721233
-454.055359 -1000 -123.771172 0.5313071160568571 -0.4 0.2784241752385081
-453.861816 -1000 -124.112823 0.5170055054463598 -0.4 0.3041588077985605
-453.651764 -1000 -124.444565 0.5014583887099762 -0.4 0.329160686634939
-453.425659 -1000 -124.765594 0.4847032156379505 -0.4 0.3533695878319108
-453.184082 -1000 -125.07515 0.4667803381836233 -0.4 0.37672720726977327
-452.65686 -1000 -125.656853 0.4276069415650005 -0.4 0.4206656351376376
-452.372467 -1000 -125.927612 0.40645079087991204 -0.4 0.44114059857988264
-452.075134 -1000 -126.184082 0.3843154612444799 -0.4 0.4605528189692721
-452.927612 -1000 -125.372475 0.44773294916740175 -0.4 0.3991772530495493
-800 0 0 -0.5 0.3333333333333333 0.16666666666666666
0 0 0 0.2222222222222222 0.5555555555555556 0.2222222222222222
-455 -565 -13 0.4 -0.2 -0.4
-455 -565 -120 0.37492470467102 -0.625 0.006135307254198306
-447 -565 -128 0.0008180409672264408 -0.9333333333333333 0.06665662728946933
-451.765594 -565 -126.425659 0.3533695878319108 -0.4 0.4847032156379505
-452.075134 -565 -126.184082 0.37672720726977327 -0.4 0.4667803381836233
-449.322266 -565 -127.655525 0.09412303045895554 -0.6666666666666666 0.31967558956810727
-447.392548 -565 -127.990364 0.024529405305473262 -0.4 0.5993376187371678
-451.44455 -565 -126.651756 0.3291606866349391 -0.4 0.5014583887099762
-452.65686 -565 -125.656853 0.4206656351376376 -0.4 0.4276069415650005
-452.927612 -565 -125.372475 0.44114059857988264 -0.4 0.406450790879912
-452.372467 -565 -125.927612 0.3991772530495493 -0.4 0.44773294916740175
-449.695129 -565 -127.532356 0.19745171134702466 -0.4 0.5664098293251731
-450.061462 -565 -127.391037 0.2250062776212353 -0.4 0.5560390707402915
-453.184082 -565 -125.07515 0.4605528189692721 -0.4 0.38431546124447996
-453.425659 -565 -124.765594 0.47885553651796253 -0.4 0.3612542705634887
-450.420441 -565 -127.231911 0.2520187876721233 -0.4 0.54432876416045
-454.231903 -565 -123.420441 0.5401316715412322 -0.4 0.2608927945157628
-454.391022 -565 -123.06147 0.5522824637599796 -0.4 0.23407552922485958
-453.861816 -565 -124.112823 0.5119588205661775 -0.4 0.31257869260040133
-454.055359 -565 -123.771172 0.5266796531916996 -0.4 0.2870815491176139
-450.771179 -565 -127.055367 0.2784241752385081 -0.4 0.531307116056857
-451.112823 -565 -126.861832 0.3041588077985605 -0.4 0.5170055054463598
-454.760254 -565 -121.94384 0.5806508521871029 -0.4 0.15050535152341166
-454.846283 -565 -121.560722 0.5873363806131106 -0.4 0.12183287312188523
-454.532349 -565 -122.695122 0.5631027535228882 -0.4 0.20669436868231783
-454.655518 -565 -122.322281 0.5725664831750257 -0.4 0.17881525441892576
-453.651764 -565 -124.444565 0.4960046417339573 -0.4 0.33732279586763597
-454.961487 -565 -120.784134 0.5964499051857389 -0.4 0.06367718310777243
-454.990356 -565 -120.39254 0.5988559462638875 -0.4 0.03433407320087059
-454.913422 -565 -121.173843 0.5926069641593396 -0.4 0.09286688881013666
-353 -565 -128 -0.0023372599063612594 -0.8095238095238095 0.19044750654134096
-345 -565 -120 -0.4999498031140133 -0.5 0.0040902048361322035
-345 -565 -13 -0.25 -0.5 -0.25
-345.009644 -565 -120.39254 -0.5993376187371678 -0.4 0.024529405305473262
-345.038513 -565 -120.784134 -0.597412089488173 -0.4 0.05390796210202018
-345.086578 -565 -121.173843 -0.5940473425213222 -0.4 0.08315664646183069
-345.153717 -565 -121.560722 -0.5892514832052337 -0.4 0.11220500214016393
-345.239746 -565 -121.94384 -0.583036065104045 -0.4 0.1409830478135091
-345.344482 -565 -122.322281 -0.5754160612225931 -0.4 0.16942145482611998
-345.467651 -565 -122.695122 -0.5664098293251731 -0.4 0.19745171134702466
-345.608978 -565 -123.06147 -0.5560390707402915 -0.4 0.2250062776212353
-345.768097 -565 -123.420441 -0.54432876416045 -0.4 0.2520187876721233
-345.944641 -565 -123.771172 -0.531307116056857 -0.4 0.2784241752385081
-346.138184 -565 -124.112823 -0.5170055054463598 -0.4 0.3041588077985605
-346.348236 -565 -124.444565 -0.5014583887099762 -0.4 0.3291606866349391
-346.574341 -565 -124.765594 -0.4847032156379505 -0.4 0.3533695878319108
-346.815918 -565 -125.07515 -0.11113817575800554 -0.8571428571428571 0.08969695411185077
-352.607452 -565 -127.990364 -0.03433407320087059 -0.4 0.5988559462638875
-352.215851 -565 -127.961479 -0.06367718310777243 -0.4 0.5964499051857389
-351.826141 -565 -127.913414 -0.09286688881013666 -0.4 0.5926069641593396
-351.43927 -565 -127.846283 -0.12183287312188523 -0.4 0.5873363806131106
-351.056152 -565 -127.760246 -0.15050535152341166 -0.4 0.5806508521871029
-350.677734 -565 -127.655525 -0.17881525441892576 -0.4 0.5725664831750257
-350.304871 -565 -127.532356 -0.20669436868231783 -0.4 0.5631027535228882
-349.938538 -565 -127.391037 -0.23407552922485958 -0.4 0.5522824637599796
-349.579559 -565 -127.231911 -0.2608927945157628 -0.4 0.5401316715412322
-349.228821 -565 -127.055367 -0.2870815491176139 -0.4 0.5266796531916996
-348.887177 -565 -126.861832 -0.31257869260040133 -0.4 0.5119588205661775
-348.55545 -565 -126.651756 -0.33732279586763597 -0.4 0.4960046417339573
-348.234406 -565 -126.425659 -0.3612542705634887 -0.4 0.47885553651796253
-347.924866 -565 -126.184082 -0.38431546124447996 -0.4 0.4605528189692721
-347.072388 -565 -125.372475 -0.5596661864592521 -0.25 0.4989715663119366
-347.34314 -565 -125.656853 -0.4276069415650005 -0.4 0.4206656351376376
-347.627533 -565 -125.927612 -0.406450790879912 -0.4 0.44114059857988264
-448.173859 -565 -127.913414 0.08315664646183069 -0.4 0.5940473425213222
-448.56073 -565 -127.846283 0.11220500214016393 -0.4 0.5892514832052337
-447.784149 -565 -127.961479 0.05390796210202018 -0.4 0.597412089488173
-448.943848 -565 -127.760246 0.17622880976688635 -0.25 0.7287950813800563
-353 0 -128 -0.008180409672264407 0.3333333333333333 0.6665662728946933
-447 0 -128 0.0049082458033586455 0.6000000000000001 0.39993976373681606
-352.607452 0 -127.990364 -0.034334073200870584 0.4 0.5988559462638875
-351.826141 0 -127.913414 -0.09286688881013666 0.4 0.5926069641593396
-352.215851 0 -127.961479 -0.06367718310777243 0.4 0.5964499051857389
-351.43927 0 -127.846283 -0.12183287312188523 0.4 0.5873363806131106
-349.938538 0 -127.391037 -0.23407552922485958 0.4 0.5522824637599796
-350.304871 0 -127.532356 -0.20669436868231783 0.4 0.5631027535228882
-350.677734 0 -127.655525 -0.17881525441892576 0.4 0.5725664831750257
-351.056152 0 -127.760246 -0.15050535152341166 0.4 0.5806508521871029
-349.579559 0 -127.231911 -0.2608927945157628 0.4 0.5401316715412322
-348.887177 0 -126.861832 -0.3125786926004014 0.4 0.5119588205661775
-349.228821 0 -127.055367 -0.2870815491176139 0.4 0.5266796531916996
-348.234406 0 -126.425659 -0.3010452254695739 0.5 0.39904628043163537
-348.55545 0 -126.651756 -0.33732279586763597 0.4 0.4960046417339573
-347.924866 0 -126.184082 -0.3843154612444799 0.4 0.4605528189692721
-347.627533 0 -125.927612 -0.40645079087991204 0.4 0.44114059857988264
-347.34314 0 -125.656853 -0.4276069415650005 0.4 0.4206656351376376
-347.072388 0 -125.372475 -0.44773294916740175 0.4 0.3991772530495493
-346.815918 0 -125.07515 -0.4667803381836233 0.4 0.37672720726977327
-346.574341 0 -124.765594 -0.4847032156379505 0.4 0.3533695878319108
-346.348236 0 -124.444565 -0.5014583887099762 0.4 0.329160686634939
-346.138184 0 -124.112823 -0.5170055054463598 0.4 0.3041588077985605
-345.944641 0 -123.771172 -0.5313071160568571 0.4 0.2784241752385081
-345.768097 0 -123.420441 -0.54432876416045 0.4 0.2520187876721233
-345.608978 0 -123.06147 -0.5560390707402915 0.4 0.2250062776212353
-345.467651 0 -122.695122 -0.5664098293251731 0.4 0.19745171134702466
-345.344482 0 -122.322281 -0.5754160612225931 0.4 0.16942145482612
-345.239746 0 -121.94384 -0.583036065104045 0.4 0.1409830478135091
-345.153717 0 -121.560722 -0.5892514832052337 0.4 0.11220500214016393
-345.086578 0 -121.173843 -0.5940473425213222 0.4 0.08315664646183067
-345.038513 0 -120.784134 -0.597412089488173 0.4 0.053907962102020174
-345.009644 0 -120.39254 -0.5993376187371678 0.4 0.024529405305473262
-345 0 -120 -0.4999498031140133 0.5 0.0040902048361322035
-345 0 -13 -0.2 0.6000000000000001 -0.2
-455 0 -13 0.2857142857142857 0.42857142857142855 -0.2857142857142857
-455 0 -120 0.49989960622802665 0.5 0.008180409672264407
-454.990356 0 -120.39254 0.5988559462638875 0.4 0.034334073200870584
-454.961487 0 -120.784134 0.5964499051857389 0.4 0.06367718310777243
-454.913422 0 -121.173843 0.5926069641593396 0.4 0.09286688881013666
-454.846283 0 -121.560722 0.5873363806131106 0.4 0.12183287312188523
-454.760254 0 -121.94384 0.5806508521871029 0.4 0.15050535152341166
-454.655518 0 -122.322281 0.5725664831750257 0.4 0.17881525441892576
-454.532349 0 -122.695122 0.5631027535228882 0.4 0.20669436868231783
-454.391022 0 -123.06147 0.5522824637599796 0.4 0.23407552922485958
-454.231903 0 -123.420441 0.5401316715412322 0.4 0.2608927945157628
-454.055359 0 -123.771172 0.5266796531916996 0.4 0.2870815491176139
-453.861816 0 -124.112823 0.5119588205661775 0.4 0.3125786926004014
-453.651764 0 -124.444565 0.4960046417339573 0.4 0.33732279586763597
-453.425659 0 -124.765594 0.47885553651796253 0.4 0.3612542705634887
-453.184082 0 -125.07515 0.4605528189692721 0.4 0.3843154612444799
-452.927612 0 -125.372475 0.44114059857988264 0.4 0.40645079087991204
-452.65686 0 -125.656853 0.4206656351376376 0.4 0.4276069415650005
-452.372467 0 -125.927612 0.3991772530495493 0.4 0.44773294916740175
-451.765594 0 -126.425659 0.2944746565265923 0.5 0.4039193463649587
-452.075134 0 -126.184082 0.37672720726977327 0.4 0.4667803381836233
-451.44455 0 -126.651756 0.329160686634939 0.4 0.5014583887099762
-451.112823 0 -126.861832 0.3041588077985605 0.4 0.5170055054463598
-450.771179 0 -127.055367 0.2784241752385081 0.4 0.5313071160568571
-450.420441 0 -127.231911 0.2520187876721233 0.4 0.54432876416045
-450.061462 0 -127.391037 0.2250062776212353 0.4 0.5560390707402915
-449.695129 0 -127.532356 0.19745171134702466 0.4 0.5664098293251731
-449.322266 0 -127.655525 0.16942145482612 0.4 0.5754160612225931
-448.943848 0 -127.760246 0.1409830478135091 0.4 0.583036065104045
-448.56073 0 -127.846283 0.11220500214016393 0.4 0.5892514832052337
-448.173859 0 -127.913414 0.08315664646183067 0.4 0.5940473425213222
-447.784149 0 -127.961479 0.053907962102020174 0.4 0.597412089488173
-447.392548 0 -127.990364 0.024529405305473262 0.4 0.5993376187371678
-345 -435 -13 -0.4 0.2 -0.4
-345 -435 -120 -0.37492470467102 0.625 0.006135307254198306
-347.072388 -435 -125.372475 -0.11608963120523226 0.8421052631578947 0.10696073444208208
-353 -435 -128 -0.0012916436324628012 0.894736842105263 0.10524730624653052
-352.607452 -435 -127.990364 -0.024529405305473262 0.4 0.5993376187371678
-348.55545 -435 -126.651756 -0.3291606866349391 0.4 0.5014583887099762
-348.234406 -435 -126.425659 -0.3533695878319108 0.4 0.4847032156379505
-349.228821 -435 -127.055367 -0.2784241752385081 0.4 0.531307116056857
-348.887177 -435 -126.861832 -0.3041588077985605 0.4 0.5170055054463598
-349.938538 -435 -127.391037 -0.2250062776212353 0.4 0.5560390707402915
-349.579559 -435 -127.231911 -0.2520187876721233 0.4 0.54432876416045
-351.056152 -435 -127.760246 -0.1409830478135091 0.4 0.583036065104045
-350.677734 -435 -127.655525 -0.16942145482611998 0.4 0.5754160612225931
-351.826141 -435 -127.913414 -0.08315664646183069 0.4 0.5940473425213222
-351.43927 -435 -127.846283 -0.11220500214016393 0.4 0.5892514832052337
-352.215851 -435 -127.961479 -0.05390796210202018 0.4 0.597412089488173
-346.815918 -435 -125.07515 -0.4605528189692721 0.4 0.38431546124447996
-347.924866 -435 -126.184082 -0.31393933939147767 0.5 0.3889836151530194
-350.304871 -435 -127.532356 -0.19745171134702466 0.4 0.5664098293251731
-347.34314 -435 -125.656853 -0.4206656351376376 0.4 0.4276069415650005
-346.574341 -435 -124.765594 -0.47885553651796253 0.4 0.3612542705634887
-346.348236 -435 -124.444565 -0.4960046417339573 0.4 0.33732279586763597
-346.138184 -435 -124.112823 -0.5119588205661775 0.4 0.31257869260040133
-345.944641 -435 -123.771172 -0.5266796531916996 0.4 0.2870815491176139
-345.768097 -435 -123.420441 -0.5401316715412322 0.4 0.2608927945157628
-345.608978 -435 -123.06147 -0.5522824637599796 0.4 0.23407552922485958
-345.467651 -435 -122.695122 -0.5631027535228882 0.4 0.20669436868231783
-345.344482 -435 -122.322281 -0.5725664831750257 0.4 0.17881525441892576
-345.239746 -435 -121.94384 -0.5806508521871029 0.4 0.15050535152341166
-345.153717 -435 -121.560722 -0.5873363806131106 0.4 0.12183287312188523
-345.086578 -435 -121.173843 -0.5926069641593396 0.4 0.09286688881013666
-345.038513 -435 -120.784134 -0.5964499051857389 0.4 0.06367718310777243
-345.009644 -435 -120.39254 -0.5988559462638875 0.4 0.03433407320087059
-455 -435 -120 0.4999498031140133 0.5 0.0040902048361322035
-447 -435 -128 0.0013265529198266607 0.8918918918918919 0.10809182803697731
-455 -435 -13 0.25 0.5 -0.25
-454.990356 -435 -120.39254 0.5993376187371678 0.4 0.024529405305473262
-454.961487 -435 -120.784134 0.597412089488173 0.4 0.05390796210202018
-454.913422 -435 -121.173843 0.5940473425213222 0.4 0.08315664646183069
-454.846283 -435 -121.560722 0.5892514832052337 0.4 0.11220500214016393
-454.760254 -435 -121.94384 0.583036065104045 0.4 0.1409830478135091
-454.655518 -435 -122.322281 0.5754160612225931 0.4 0.16942145482611998
-454.532349 -435 -122.695122 0.5664098293251731 0.4 0.19745171134702466
-454.391022 -435 -123.06147 0.5560390707402915 0.4 0.2250062776212353
-454.231903 -435 -123.420441 0.54432876416045 0.4 0.2520187876721233
-454.055359 -435 -123.771172 0.531307116056857 0.4 0.2784241752385081
-453.861816 -435 -124.112823 0.5170055054463598 0.4 0.3041588077985605
-453.651764 -435 -124.444565 0.5014583887099762 0.4 0.3291606866349391
-453.425659 -435 -124.765594 0.4847032156379505 0.4 0.3533695878319108
-453.184082 -435 -125.07515 0.4667803381836233 0.4 0.37672720726977327
-452.927612 -435 -125.372475 0.44773294916740175 0.4 0.3991772530495493
-452.65686 -435 -125.656853 0.4276069415650005 0.4 0.4206656351376376
-452.372467 -435 -125.927612 0.406450790879912 0.4 0.44114059857988264
-452.075134 -435 -126.184082 0.38431546124447996 0.4 0.4605528189692721
-451.765594 -435 -126.425659 0.3612542705634887 0.4 0.47885553651796253
-451.44455 -435 -126.651756 0.33732279586763597 0.4 0.4960046417339573
-451.112823 -435 -126.861832 0.31257869260040133 0.4 0.5119588205661775
-450.771179 -435 -127.055367 0.2870815491176139 0.4 0.5266796531916996
-450.420441 -435 -127.231911 0.2608927945157628 0.4 0.5401316715412322
-450.061462 -435 -127.391037 0.23407552922485958 0.4 0.5522824637599796
-449.695129 -435 -127.532356 0.20669436868231783 0.4 0.5631027535228882
-449.322266 -435 -127.655525 0.17881525441892576 0.4 0.5725664831750257
-448.943848 -435 -127.760246 0.15050535152341166 0.4 0.5806508521871029
-448.173859 -435 -127.913414 0.09286688881013666 0.4 0.5926069641593396
-447.784149 -435 -127.961479 0.06367718310777243 0.4 0.5964499051857389
-448.56073 -435 -127.846283 0.12183287312188523 0.4 0.5873363806131106
-447.392548 -435 -127.990364 0.04291759150108824 0.25 0.7485699328298594
-347.627533 -435 -125.927612 -0.4989715663119366 0.25 0.5596661864592521
0 -548.56073 -127.846283 0.4 0.12183287312188523 0.5873363806131106
0 -548.173828 -127.913414 0.4 0.09286688881013666 0.5926069641593396
0 -547 -128 0.42857142857142855 0.007011779719083778 0.5713425196240228
0 -548.943848 -127.760246 0.4 0.15050535152341166 0.5806508521871029
0 -549.695129 -127.532356 0.4 0.20669436868231783 0.5631027535228882
0 -549.322266 -127.655525 0.4 0.17881525441892576 0.5725664831750257
0 -547.784119 -127.961479 0.4 0.06367718310777243 0.5964499051857389
0 -550.061462 -127.391037 0.4 0.23407552922485958 0.5522824637599796
0 -551.765564 -126.425659 0.5 0.3010452254695739 0.39904628043163537
0 -547.392517 -127.990364 0.4 0.03433407320087059 0.5988559462638875
0 -550.771179 -127.055367 0.4 0.2870815491176139 0.5266796531916996
0 -550.420471 -127.231911 0.4 0.2608927945157628 0.5401316715412322
0 -551.44458 -126.651756 0.4 0.33732279586763597 0.4960046417339573
0 -551.112793 -126.861832 0.4 0.31257869260040133 0.5119588205661775
0 -552.075134 -126.184082 0.4 0.38431546124447996 0.4605528189692721
0 -552.372498 -125.927612 0.4 0.406450790879912 0.44114059857988264
0 -552.65686 -125.656853 0.4 0.4276069415650005 0.4206656351376376
0 -552.927612 -125.372475 0.4 0.44773294916740175 0.3991772530495493
0 -553.184082 -125.07515 0.4 0.4667803381836233 0.37672720726977327
0 -553.425659 -124.765594 0.4 0.4847032156379505 0.3533695878319108
0 -553.651733 -124.444565 0.4 0.5014583887099762 0.3291606866349391
0 -553.861816 -124.112823 0.4 0.5170055054463598 0.3041588077985605
0 -554.055359 -123.771172 0.4 0.531307116056857 0.2784241752385081
0 -554.231934 -123.420441 0.4 0.54432876416045 0.2520187876721233
0 -554.391052 -123.06147 0.4 0.5560390707402915 0.2250062776212353
0 -554.532349 -122.695122 0.4 0.5664098293251731 0.19745171134702466
0 -554.655518 -122.322281 0.4 0.5754160612225931 0.16942145482611998
0 -554.760254 -121.94384 0.4 0.583036065104045 0.1409830478135091
0 -554.846252 -121.560722 0.4 0.5892514832052337 0.11220500214016393
0 -554.913391 -121.173843 0.4 0.5940473425213222 0.08315664646183069
0 -554.961487 -120.784134 0.4 0.597412089488173 0.05390796210202018
0 -554.990356 -120.39254 0.4 0.5993376187371678 0.024529405305473262
0 -555 -120 0.6000000000000001 0.39993976373681606 0.0049082458033586455
0 -555 -13 0.42857142857142855 0.2857142857142857 -0.2857142857142857
0 -445 -13 0.6000000000000001 -0.2 -0.2
0 -445 -120 0.42857142857142855 -0.5713425196240228 0.007011779719083778
0 -445.009644 -120.39254 0.4 -0.5988559462638875 0.03433407320087059
0 -445.038513 -120.784134 0.4 -0.5964499051857389 0.06367718310777243
0 -445.086578 -121.173843 0.4 -0.5926069641593396 0.09286688881013666
0 -445.153717 -121.560722 0.4 -0.5873363806131106 0.12183287312188523
0 -445.239746 -121.94384 0.4 -0.5806508521871029 0.15050535152341166
0 -445.344482 -122.322281 0.4 -0.5725664831750257 0.17881525441892576
0 -445.467651 -122.695122 0.4 -0.5631027535228882 0.20669436868231783
0 -445.608978 -123.06147 0.4 -0.5522824637599796 0.23407552922485958
0 -445.768097 -123.420441 0.4 -0.5401316715412322 0.2608927945157628
0 -445.944641 -123.771172 0.4 -0.5266796531916996 0.2870815491176139
0 -446.138184 -124.112823 0.4 -0.5119588205661775 0.31257869260040133
0 -446.348236 -124.444565 0.4 -0.4960046417339573 0.33732279586763597
0 -446.574341 -124.765594 0.4 -0.47885553651796253 0.3612542705634887
0 -446.815918 -125.07515 0.4 -0.4605528189692721 0.38431546124447996
0 -447.072388 -125.372475 0.4 -0.44114059857988264 0.406450790879912
0 -447.34314 -125.656853 0.4 -0.4206656351376376 0.4276069415650005
0 -447.627533 -125.927612 0.4 -0.3991772530495493 0.44773294916740175
0 -448.234406 -126.425659 0.5 -0.2944746565265923 0.4039193463649587
0 -447.924866 -126.184082 0.4 -0.37672720726977327 0.4667803381836233
0 -448.55545 -126.651756 0.4 -0.3291606866349391 0.5014583887099762
0 -448.887177 -126.861832 0.4 -0.3041588077985605 0.5170055054463598
0 -449.228821 -127.055367 0.4 -0.2784241752385081 0.531307116056857
0 -449.579559 -127.231911 0.4 -0.2520187876721233 0.54432876416045
0 -449.938538 -127.391037 0.4 -0.2250062776212353 0.5560390707402915
0 -450.304871 -127.532356 0.4 -0.19745171134702466 0.5664098293251731
0 -450.677734 -127.655525 0.4 -0.16942145482611998 0.5754160612225931
0 -451.056152 -127.760246 0.4 -0.1409830478135091 0.583036065104045
0 -451.43927 -127.846283 0.4 -0.11220500214016393 0.5892514832052337
0 -451.826141 -127.913414 0.4 -0.08315664646183069 0.5940473425213222
0 -452.215851 -127.961479 0.4 -0.05390796210202018 0.597412089488173
0 -453 -128 0.5 -0.006135307254198306 0.49992470467102
0 -452.607452 -127.990364 0.4 -0.024529405305473262 0.5993376187371678
-800 -547.784119 -127.961479 -0.4 0.053907962102020174 0.597412089488173
-800 -548.173828 -127.913414 -0.4 0.08315664646183067 0.5940473425213222
-800 -453 -128 -0.42857142857142855 -0.007011779719083778 0.5713425196240228
-800 -548.943848 -127.760246 -0.4 0.1409830478135091 0.583036065104045
-800 -549.322266 -127.655525 -0.4 0.16942145482612 0.5754160612225931
-800 -548.56073 -127.846283 -0.4 0.11220500214016393 0.5892514832052337
-800 -547 -128 -0.5 0.006135307254198306 0.49992470467102
-800 -549.695129 -127.532356 -0.4 0.19745171134702466 0.5664098293251731
-800 -547.392517 -127.990364 -0.4 0.024529405305473262 0.5993376187371678
-800 -551.765564 -126.425659 -0.5 0.2944746565265923 0.4039193463649587
-800 -550.061462 -127.391037 -0.4 0.2250062776212353 0.5560390707402915
-800 -550.420471 -127.231911 -0.4 0.2520187876721233 0.54432876416045
-800 -551.44458 -126.651756 -0.4 0.329160686634939 0.5014583887099762
-800 -550.771179 -127.055367 -0.4 0.2784241752385081 0.5313071160568571
-800 -551.112793 -126.861832 -0.4 0.3041588077985605 0.5170055054463598
-800 -552.075134 -126.184082 -0.4 0.37672720726977327 0.4667803381836233
-800 -552.372498 -125.927612 -0.4 0.3991772530495493 0.44773294916740175
-800 -552.65686 -125.656853 -0.4 0.4206656351376376 0.4276069415650005
-800 -552.927612 -125.372475 -0.4 0.44114059857988264 0.40645079087991204
-800 -553.184082 -125.07515 -0.4 0.4605528189692721 0.3843154612444799
-800 -553.425659 -124.765594 -0.4 0.47885553651796253 0.3612542705634887
-800 -553.651733 -124.444565 -0.4 0.4960046417339573 0.33732279586763597
-800 -553.861816 -124.112823 -0.4 0.5119588205661775 0.3125786926004014
-800 -554.055359 -123.771172 -0.4 0.5266796531916996 0.2870815491176139
-800 -554.231934 -123.420441 -0.4 0.5401316715412322 0.2608927945157628
-800 -554.391052 -123.06147 -0.4 0.5522824637599796 0.23407552922485958
-800 -554.532349 -122.695122 -0.4 0.5631027535228882 0.20669436868231783
-800 -554.655518 -122.322281 -0.4 0.5725664831750257 0.17881525441892576
-800 -554.760254 -121.94384 -0.4 0.5806508521871029 0.15050535152341166
-800 -554.846252 -121.560722 -0.4 0.5873363806131106 0.12183287312188523
-800 -554.913391 -121.173843 -0.4 0.5926069641593396 0.09286688881013666
-800 -554.961487 -120.784134 -0.5 0.49704158765478246 0.05306431925647702
-800 -554.990356 -120.39254 -0.4 0.5988559462638875 0.034334073200870584
-800 -555 -120 -0.3333333333333333 0.6665662728946933 0.008180409672264407
-800 -555 -13 -0.6000000000000001 0.2 -0.2
-800 -445 -13 -0.5 -0.25 -0.25
-800 -445 -120 -0.6000000000000001 -0.39993976373681606 0.0049082458033586455
-800 -445.009644 -120.39254 -0.4 -0.5993376187371678 0.024529405305473262
-800 -445.038513 -120.784134 -0.4 -0.597412089488173 0.053907962102020174
-800 -445.086578 -121.173843 -0.4 -0.5940473425213222 0.08315664646183067
-800 -445.153717 -121.560722 -0.4 -0.5892514832052337 0.11220500214016393
-800 -445.239746 -121.94384 -0.4 -0.583036065104045 0.1409830478135091
-800 -445.344482 -122.322281 -0.4 -0.5754160612225931 0.16942145482612
-800 -445.467651 -122.695122 -0.4 -0.5664098293251731 0.19745171134702466
-800 -445.608978 -123.06147 -0.4 -0.5560390707402915 0.2250062776212353
-800 -445.768097 -123.420441 -0.4 -0.54432876416045 0.2520187876721233
-800 -445.944641 -123.771172 -0.4 -0.5313071160568571 0.2784241752385081
-800 -446.138184 -124.112823 -0.4 -0.5170055054463598 0.3041588077985605
-800 -446.348236 -124.444565 -0.4 -0.5014583887099762 0.329160686634939
-800 -446.574341 -124.765594 -0.4 -0.4847032156379505 0.3533695878319108
-800 -446.815918 -125.07515 -0.4 -0.4667803381836233 0.37672720726977327
-800 -447.072388 -125.372475 -0.4 -0.44773294916740175 0.3991772530495493
-800 -447.34314 -125.656853 -0.4 -0.4276069415650005 0.4206656351376376
-800 -447.924866 -126.184082 -0.4 -0.3843154612444799 0.4605528189692721
-800 -448.234406 -126.425659 -0.5 -0.3010452254695739 0.39904628043163537
-800 -447.627533 -125.927612 -0.4 -0.40645079087991204 0.44114059857988264
-800 -448.55545 -126.651756 -0.4 -0.33732279586763597 0.4960046417339573
-800 -448.887177 -126.861832 -0.4 -0.3125786926004014 0.5119588205661775
-800 -449.228821 -127.055367 -0.4 -0.2870815491176139 0.5266796531916996
-800 -449.579559 -127.231911 -0.4 -0.2608927945157628 0.5401316715412322
-800 -449.938538 -127.391037 -0.4 -0.23407552922485958 0.5522824637599796
-800 -450.304871 -127.532356 -0.4 -0.20669436868231783 0.5631027535228882
-800 -450.677734 -127.655525 -0.4 -0.17881525441892576 0.5725664831750257
-800 -451.056152 -127.760246 -0.4 -0.15050535152341166 0.5806508521871029
-800 -451.43927 -127.846283 -0.4 -0.12183287312188523 0.5873363806131106
-800 -451.826141 -127.913414 -0.4 -0.09286688881013666 0.5926069641593396
-800 -452.215851 -127.961479 -0.4 -0.06367718310777243 0.5964499051857389
-800 -452.607452 -127.990364 -0.4 -0.034334073200870584 0.5988559462638875
3 0 1 2
3 2 3 0
3 4 0 3
3 3 5 4
3 6 7 2
3 2 1 6
3 7 5 3
3 3 2 7
3 7 8 5
3 8 9 5
3 10 4 5
3 5 11 10
3 5 9 11
3 12 13 7
3 7 6 12
3 13 8 7
3 14 15 10
3 10 11 14
3 16 13 12
3 12 17 16
3 18 9 8
3 9 18 14
3 8 19 18
3 14 11 9
3 16 19 8
3 8 13 16
3 18 19 20
3 20 21 18
3 21 20 22
3 22 23 21
3 23 22 24
3 24 25 23
3 24 26 27
3 26 24 28
3 27 25 24
3 28 29 26
3 30 25 27
3 27 31 30
3 28 32 33
3 33 29 28
3 30 31 34
3 34 35 30
3 33 36 37
3 37 29 33
3 37 26 29
3 34 31 38
3 38 39 34
3 31 27 38
3 38 37 40
3 40 41 38
3 38 27 37
3 27 26 37
3 42 43 41
3 41 40 42
3 36 42 40
3 40 37 36
3 39 38 41
3 41 43 39
3 0 44 45
3 0 46 47
3 0 48 44
3 0 49 50
3 0 51 46
3 0 52 53
3 45 54 0
3 47 49 0
3 53 1 0
3 50 48 0
3 0 55 56
3 56 51 0
3 0 57 58
3 58 55 0
3 57 0 4
3 54 52 0
3 53 59 1
3 1 59 60
3 60 61 1
3 61 62 1
3 1 62 63
3 63 64 1
3 1 64 65
3 65 66 1
3 66 67 1
3 1 67 68
3 68 69 1
3 6 1 70
3 1 69 71
3 71 70 1
3 70 72 6
3 72 73 6
3 6 73 74
3 74 75 6
3 6 75 76
3 76 77 6
3 6 77 78
3 78 79 6
3 6 79 80
3 6 80 81
3 81 82 6
3 6 82 83
3 83 84 6
3 6 84 85
3 85 86 6
3 6 86 87
3 87 88 6
3 88 89 6
3 12 6 90
3 6 89 90
3 91 17 12
3 12 92 91
3 90 92 12
3 93 91 92
3 92 94 93
3 93 94 10
3 10 15 93
3 10 94 95
3 95 4 10
3 95 96 4
3 4 96 97
3 4 97 98
3 98 99 4
3 4 99 100
3 100 101 4
3 4 101 102
3 102 103 4
3 4 103 104
3 104 105 4
3 105 106 4
3 4 106 107
3 107 108 4
3 4 108 109
3 4 110 111
3 4 112 57
3 4 113 110
3 111 112 4
3 109 113 4
3 93 114 115
3 115 91 93
3 95 94 116
3 116 117 95
3 118 119 120
3 121 118 122
3 118 123 119
3 118 124 125
3 120 126 118
3 118 127 128
3 118 129 130
3 126 124 118
3 128 131 118
3 118 132 133
3 118 134 135
3 125 129 118
3 118 136 137
3 121 127 118
3 118 138 139
3 118 140 141
3 135 132 118
3 130 142 118
3 131 136 118
3 118 143 144
3 139 145 118
3 133 140 118
3 137 123 118
3 145 143 118
3 142 134 118
3 141 138 118
3 146 118 117
3 144 117 118
3 117 147 146
3 148 147 117
3 117 116 148
3 146 147 149
3 149 150 146
3 146 150 151
3 146 151 152
3 152 153 146
3 153 154 146
3 146 154 155
3 146 155 156
3 156 157 146
3 157 158 146
3 146 158 159
3 159 160 146
3 146 160 161
3 161 162 146
3 163 146 162
3 164 163 162
3 162 165 164
3 166 165 162
3 162 167 166
3 168 167 162
3 162 169 168
3 162 170 169
3 171 170 162
3 162 172 171
3 173 172 162
3 162 174 173
3 175 174 162
3 162 176 175
3 162 177 178
3 178 179 162
3 179 176 162
3 121 180 181
3 122 182 121
3 182 180 121
3 181 183 121
3 52 118 146
3 146 53 52
3 92 90 147
3 147 148 92
3 149 147 90
3 90 89 149
3 150 149 89
3 89 88 150
3 151 150 88
3 88 87 151
3 152 151 87
3 87 86 152
3 153 152 86
3 86 85 153
3 154 153 85
3 85 84 154
3 155 154 84
3 84 83 155
3 156 155 83
3 83 82 156
3 157 156 82
3 82 81 157
3 158 157 81
3 81 80 158
3 159 158 80
3 80 79 159
3 160 159 79
3 79 78 160
3 161 160 78
3 78 77 161
3 162 161 77
3 77 76 162
3 177 162 76
3 76 75 177
3 178 177 75
3 75 74 178
3 179 178 74
3 74 73 179
3 176 179 73
3 73 72 176
3 175 176 72
3 72 70 175
3 174 175 70
3 70 71 174
3 173 174 71
3 71 69 173
3 172 173 69
3 69 68 172
3 171 172 68
3 68 67 171
3 170 171 67
3 67 66 170
3 169 170 66
3 66 65 169
3 168 169 65
3 65 64 168
3 167 168 64
3 64 63 167
3 166 167 63
3 63 62 166
3 165 166 62
3 62 61 165
3 164 165 61
3 61 60 164
3 163 164 60
3 60 59 163
3 146 163 59
3 59 53 146
3 122 118 52
3 52 54 122
3 182 122 54
3 54 45 182
3 180 182 45
3 45 44 180
3 181 180 44
3 44 48 181
3 183 181 48
3 48 50 183
3 121 183 50
3 50 49 121
3 127 121 49
3 49 47 127
3 128 127 47
3 47 46 128
3 131 128 46
3 46 51 131
3 136 131 51
3 51 56 136
3 137 136 56
3 56 55 137
3 123 137 55
3 55 58 123
3 119 123 58
3 58 57 119
3 120 119 57
3 57 112 120
3 126 120 112
3 112 111 126
3 124 126 111
3 111 110 124
3 125 124 110
3 110 113 125
3 129 125 113
3 113 109 129
3 130 129 109
3 109 108 130
3 142 130 108
3 108 107 142
3 134 142 107
3 107 106 134
3 135 134 106
3 106 105 135
3 132 135 105
3 105 104 132
3 133 132 104
3 104 103 133
3 140 133 103
3 103 102 140
3 141 140 102
3 102 101 141
3 138 141 101
3 101 100 138
3 139 138 100
3 100 99 139
3 145 139 99
3 99 98 145
3 143 145 98
3 98 97 143
3 144 143 97
3 97 96 144
3 117 144 96
3 96 95 117
3 92 148 116
3 116 94 92
3 42 184 185
3 185 43 42
3 42 186 184
3 42 187 188
3 42 189 187
3 42 190 191
3 188 186 42
3 42 192 193
3 42 194 190
3 191 192 42
3 193 189 42
3 42 195 196
3 196 194 42
3 42 197 198
3 198 195 42
3 197 42 36
3 36 199 197
3 200 199 36
3 36 201 200
3 36 202 201
3 203 202 36
3 36 204 203
3 205 204 36
3 36 206 205
3 207 206 36
3 208 207 36
3 36 209 208
3 210 209 36
3 36 211 210
3 212 211 36
3 36 213 212
3 214 213 36
3 36 215 214
3 36 216 215
3 217 36 33
3 217 216 36
3 33 218 217
3 115 218 33
3 33 32 115
3 219 218 115
3 115 34 219
3 34 115 114
3 220 219 34
3 34 39 220
3 114 35 34
3 39 221 220
3 222 221 39
3 223 222 39
3 39 224 223
3 225 224 39
3 39 226 225
3 227 226 39
3 39 228 227
3 229 228 39
3 39 230 229
3 39 231 230
3 232 231 39
3 39 233 232
3 234 233 39
3 39 235 234
3 236 235 39
3 39 237 236
3 39 43 238
3 238 239 39
3 239 237 39
3 240 238 43
3 43 241 240
3 242 241 43
3 43 243 242
3 244 243 43
3 245 244 43
3 43 246 245
3 247 246 43
3 43 248 247
3 249 248 43
3 250 249 43
3 43 251 250
3 185 251 43
3 217 218 252
3 252 253 217
3 254 255 256
3 254 257 258
3 254 259 260
3 254 261 262
3 254 263 264
3 254 265 266
3 256 267 254
3 255 254 268
3 258 269 254
3 262 259 254
3 264 270 254
3 267 265 254
3 260 257 254
3 266 263 254
3 270 261 254
3 271 254 269
3 268 272 255
3 272 273 255
3 273 274 255
3 255 274 275
3 275 276 255
3 255 276 277
3 277 278 255
3 255 278 279
3 279 280 255
3 255 280 281
3 281 282 255
3 282 283 255
3 255 283 284
3 284 253 255
3 253 285 286
3 286 255 253
3 287 285 253
3 253 252 287
3 286 285 288
3 288 289 286
3 286 289 290
3 286 290 291
3 291 292 286
3 286 292 293
3 293 294 286
3 286 294 295
3 295 296 286
3 286 296 297
3 297 298 286
3 286 298 299
3 286 299 300
3 300 301 286
3 286 301 302
3 302 303 286
3 286 303 304
3 304 305 286
3 286 305 306
3 306 307 286
3 286 307 308
3 308 309 286
3 286 309 310
3 310 311 286
3 286 311 312
3 286 312 313
3 313 314 286
3 286 315 316
3 286 314 317
3 317 315 286
3 316 318 286
3 269 319 271
3 184 255 286
3 286 185 184
3 219 220 285
3 285 287 219
3 288 285 220
3 220 221 288
3 289 288 221
3 221 222 289
3 290 289 222
3 222 223 290
3 291 290 223
3 223 224 291
3 292 291 224
3 224 225 292
3 293 292 225
3 225 226 293
3 294 293 226
3 226 227 294
3 295 294 227
3 227 228 295
3 296 295 228
3 228 229 296
3 297 296 229
3 229 230 297
3 298 297 230
3 230 231 298
3 299 298 231
3 231 232 299
3 300 299 232
3 232 233 300
3 301 300 233
3 233 234 301
3 302 301 234
3 234 235 302
3 303 302 235
3 235 236 303
3 304 303 236
3 236 237 304
3 305 304 237
3 237 239 305
3 306 305 239
3 239 238 306
3 307 306 238
3 238 240 307
3 308 307 240
3 240 241 308
3 309 308 241
3 241 242 309
3 310 309 242
3 242 243 310
3 311 310 243
3 243 244 311
3 312 311 244
3 244 245 312
3 313 312 245
3 245 246 313
3 314 313 246
3 246 247 314
3 317 314 247
3 247 248 317
3 315 317 248
3 248 249 315
3 316 315 249
3 249 250 316
3 318 316 250
3 250 251 318
3 286 318 251
3 251 185 286
3 256 255 184
3 184 186 256
3 267 256 186
3 186 188 267
3 265 267 188
3 188 187 265
3 266 265 187
3 187 189 266
3 263 266 189
3 189 193 263
3 264 263 193
3 193 192 264
3 270 264 192
3 192 191 270
3 261 270 191
3 191 190 261
3 262 261 190
3 190 194 262
3 259 262 194
3 194 196 259
3 260 259 196
3 196 195 260
3 257 260 195
3 195 198 257
3 258 257 198
3 198 197 258
3 269 258 197
3 197 199 269
3 319 269 199
3 199 200 319
3 271 319 200
3 200 201 271
3 254 271 201
3 201 202 254
3 268 254 202
3 202 203 268
3 272 268 203
3 203 204 272
3 273 272 204
3 204 205 273
3 274 273 205
3 205 206 274
3 275 274 206
3 206 207 275
3 276 275 207
3 207 208 276
3 277 276 208
3 208 209 277
3 278 277 209
3 209 210 278
3 279 278 210
3 210 211 279
3 280 279 211
3 211 212 280
3 281 280 212
3 212 213 281
3 282 281 213
3 213 214 282
3 283 282 214
3 214 215 283
3 284 283 215
3 215 216 284
3 253 284 216
3 216 217 253
3 219 287 252
3 252 218 219
3 20 320 321
3 22 20 322
3 20 323 320
3 20 324 325
3 321 326 20
3 20 327 324
3 325 323 20
3 328 20 19
3 326 329 20
3 20 330 331
3 331 327 20
3 20 332 333
3 333 330 20
3 328 332 20
3 329 322 20
3 19 334 328
3 19 335 334
3 336 335 19
3 19 337 336
3 338 337 19
3 19 339 338
3 340 339 19
3 19 341 340
3 342 341 19
3 19 343 342
3 344 343 19
3 345 344 19
3 19 346 345
3 347 346 19
3 348 347 19
3 19 349 348
3 350 349 19
3 19 351 350
3 352 19 16
3 352 351 19
3 16 353 352
3 91 353 16
3 16 17 91
3 354 353 91
3 91 28 354
3 28 91 115
3 355 354 28
3 28 24 355
3 115 32 28
3 24 356 355
3 357 356 24
3 358 357 24
3 24 359 358
3 24 360 359
3 361 360 24
3 24 362 361
3 24 363 362
3 364 363 24
3 365 364 24
3 24 366 365
3 367 366 24
3 24 368 367
3 369 368 24
3 24 370 369
3 371 370 24
3 24 372 371
3 24 22 373
3 373 374 24
3 374 372 24
3 22 375 373
3 376 375 22
3 22 377 376
3 378 377 22
3 22 379 378
3 380 379 22
3 22 381 380
3 382 381 22
3 22 383 382
3 384 383 22
3 22 385 384
3 322 386 22
3 386 387 22
3 387 385 22
3 21 388 389
3 21 23 390
3 21 391 392
3 389 393 21
3 390 394 21
3 392 395 21
3 21 396 388
3 393 391 21
3 18 21 397
3 21 398 399
3 394 396 21
3 21 400 397
3 395 398 21
3 21 401 402
3 399 401 21
3 402 400 21
3 397 403 18
3 403 404 18
3 18 404 405
3 405 406 18
3 18 406 407
3 407 408 18
3 18 408 409
3 409 410 18
3 18 410 411
3 411 412 18
3 18 412 413
3 18 413 414
3 414 415 18
3 18 415 416
3 18 416 417
3 417 418 18
3 18 418 419
3 14 419 420
3 419 14 18
3 14 420 421
3 421 422 14
3 93 15 14
3 14 422 93
3 93 422 423
3 423 114 93
3 114 423 30
3 423 424 30
3 30 35 114
3 25 30 424
3 424 425 25
3 25 425 426
3 25 426 427
3 427 428 25
3 25 428 429
3 429 430 25
3 25 430 431
3 431 432 25
3 25 432 433
3 433 434 25
3 434 435 25
3 25 435 436
3 436 437 25
3 25 437 438
3 438 439 25
3 25 439 440
3 25 441 442
3 442 23 25
3 25 440 443
3 443 441 25
3 442 444 23
3 23 444 445
3 445 446 23
3 23 446 447
3 447 448 23
3 23 448 449
3 449 450 23
3 450 451 23
3 23 451 452
3 23 452 453
3 453 454 23
3 23 454 455
3 23 455 390
3 353 422 421
3 421 352 353
3 390 386 322
3 322 394 390
3 423 354 355
3 355 424 423
3 351 352 421
3 421 420 351
3 350 351 420
3 420 419 350
3 349 350 419
3 419 418 349
3 348 349 418
3 418 417 348
3 347 348 417
3 417 416 347
3 346 347 416
3 416 415 346
3 345 346 415
3 415 414 345
3 344 345 414
3 414 413 344
3 343 344 413
3 413 412 343
3 342 343 412
3 412 411 342
3 341 342 411
3 411 410 341
3 340 341 410
3 410 409 340
3 339 340 409
3 409 408 339
3 338 339 408
3 408 407 338
3 337 338 407
3 407 406 337
3 336 337 406
3 406 405 336
3 335 336 405
3 405 404 335
3 334 335 404
3 404 403 334
3 328 334 403
3 403 397 328
3 332 328 397
3 397 400 332
3 333 332 400
3 400 402 333
3 330 333 402
3 402 401 330
3 331 330 401
3 401 399 331
3 327 331 399
3 399 398 327
3 324 327 398
3 398 395 324
3 325 324 395
3 395 392 325
3 323 325 392
3 392 391 323
3 320 323 391
3 391 393 320
3 321 320 393
3 393 389 321
3 326 321 389
3 389 388 326
3 329 326 388
3 388 396 329
3 322 329 396
3 396 394 322
3 387 386 390
3 390 455 387
3 385 387 455
3 455 454 385
3 384 385 454
3 454 453 384
3 383 384 453
3 453 452 383
3 382 383 452
3 452 451 382
3 381 382 451
3 451 450 381
3 380 381 450
3 450 449 380
3 379 380 449
3 449 448 379
3 378 379 448
3 448 447 378
3 377 378 447
3 447 446 377
3 376 377 446
3 446 445 376
3 375 376 445
3 445 444 375
3 373 375 444
3 444 442 373
3 374 373 442
3 442 441 374
3 372 374 441
3 441 443 372
3 371 372 443
3 443 440 371
3 370 371 440
3 440 439 370
3 369 370 439
3 439 438 369
3 368 369 438
3 438 437 368
3 367 368 437
3 437 436 367
3 366 367 436
3 436 435 366
3 365 366 435
3 435 434 365
3 364 365 434
3 434 433 364
3 363 364 433
3 433 432 363
3 362 363 432
3 432 431 362
3 361 362 431
3 431 430 361
3 360 361 430
3 430 429 360
3 359 360 429
3 429 428 359
3 358 359 428
3 428 427 358
3 357 358 427
3 427 426 357
3 356 357 426
3 426 425 356
3 355 356 425
3 425 424 355
3 423 422 353
3 353 354 423
